<svg xmlns="http://www.w3.org/2000/svg" viewBox="0 0 26.458 33.073"><path d="M16.192 2.335a1.852 1.852 0 0 0-1.852 1.852 1.852 1.852 0 0 0 1.852 1.852 1.852 1.852 0 0 0 1.852-1.852 1.852 1.852 0 0 0-1.852-1.852zm-2.7 3.898a.794.794 0 0 0-.55.233l-4.498 4.498a.794.794 0 0 0 .166 1.248l3.836 2.215v5.629a.794.794 0 1 0 1.588 0V13.97a.794.794 0 0 0-.397-.688l-2.41-1.392 3.009-3.009 1.68 1.681a.794.794 0 0 0 .561.232h3.377a.794.794 0 1 0 0-1.586h-3.049l-2.74-2.742a.794.794 0 0 0-.572-.233zm-6.777 7.836a5.037 5.037 0 0 0-5.027 5.028 5.037 5.037 0 0 0 5.027 5.027 5.036 5.036 0 0 0 5.026-5.027 5.036 5.036 0 0 0-5.026-5.028zm13.03 0a5.037 5.037 0 0 0-5.028 5.028 5.037 5.037 0 0 0 5.027 5.027 5.036 5.036 0 0 0 5.026-5.027 5.036 5.036 0 0 0-5.026-5.028zm-13.03 1.323a3.694 3.694 0 0 1 3.703 3.705 3.694 3.694 0 0 1-3.703 3.705 3.696 3.696 0 0 1-3.705-3.705 3.695 3.695 0 0 1 3.705-3.705zm13.03 0a3.694 3.694 0 0 1 3.703 3.705 3.694 3.694 0 0 1-3.704 3.705 3.696 3.696 0 0 1-3.704-3.705 3.695 3.695 0 0 1 3.705-3.705z"/></svg>