<svg xmlns="http://www.w3.org/2000/svg" viewBox="0 0 100 125"><path d="M62.2 57.6l-14.3-5.9 15-15c.5-.4.9-1 1.2-1.6.6-1.6.3-3.3-.8-4.5 0 0-1.2-1-1.8-1.2l-14.3-5.9c-1.2-.5-2.5-.4-3.6.2l-14.3 5.9c-2.2.9-3.2 3.4-2.3 5.5.9 2.2 3.4 3.2 5.5 2.3l13-5.4 7 2.9-15.6 15.7c-.5.7-.8 1.5-.8 2.4v.4c.1.9.4 1.8 1.1 2.6l.5.5.3.2c.3.2.5.3.8.4L55 63.8 48.3 80c-.9 2.2.1 4.6 2.3 5.5 2.2.9 4.6-.1 5.5-2.3L64.5 63c.7-1.6.3-3.4-.9-4.6-.4-.3-.9-.6-1.4-.8z"/><path d="M35.7 57.9c-.5-.5-.9-1-1.2-1.6l-3.3 7.9-18.6 7.7c-2.2.9-3.2 3.4-2.3 5.5.9 2.2 3.4 3.2 5.5 2.3L36 71.4c.5-.2 1-.6 1.4-.9.4-.4.7-.9.9-1.4l3.3-8.1-3.9-1.6c-.7-.4-1.4-.9-2-1.5zM88.8 25.4c-1.7-1.7-4.3-1.7-6 0l-9.1 9.1-7.2-3c.7 2.3.1 4.9-1.7 6.7l-1.3 1.3 8.9 3.7c1.5.9 3.3.8 4.7-.3.2-.2 11.6-11.5 11.6-11.5 1.7-1.7 1.7-4.4.1-6z"/><ellipse transform="rotate(-45.001 70.152 22.061)" cx="70.2" cy="22.1" rx="8" ry="8"/></svg>